<?xml version="1.0" standalone="no"?>
<!DOCTYPE svg PUBLIC "-//W3C//DTD SVG 20010904//EN"
 "http://www.w3.org/TR/2001/REC-SVG-20010904/DTD/svg10.dtd">
<svg version="1.0" xmlns="http://www.w3.org/2000/svg"
 width="992.000000pt" height="1993.000000pt" viewBox="0 0 992.000000 1993.000000"
 preserveAspectRatio="xMidYMid meet">

<g transform="translate(0.000000,1993.000000) scale(0.100000,-0.100000)"
fill="#000000" stroke="none">
<path d="M0 9965 l0 -9965 4960 0 4960 0 0 9965 0 9965 -4960 0 -4960 0 0
-9965z m8415 9414 c492 -58 935 -371 1165 -823 86 -169 129 -307 154 -501 20
-149 20 -223 1 -371 -25 -191 -68 -332 -151 -498 -196 -392 -535 -670 -964
-789 -197 -55 -471 -67 -673 -28 -590 112 -1048 542 -1201 1126 -62 235 -60
521 5 762 147 551 584 972 1140 1099 147 33 358 43 524 23z m-5469 -5487 c48
-25 68 -64 67 -132 -1 -58 -21 -98 -73 -143 l-41 -35 34 -11 c142 -47 135
-297 -10 -357 -47 -20 -366 -20 -340 0 16 12 17 41 17 345 0 285 -2 332 -15
337 -8 4 -12 11 -9 16 4 7 64 9 168 6 139 -4 167 -8 202 -26z m414 19 c0 -5
-7 -14 -15 -21 -13 -11 -15 -60 -15 -333 0 -284 2 -322 17 -339 15 -17 12 -18
-98 -18 -104 1 -112 2 -94 16 19 14 20 25 17 342 -2 271 -5 329 -17 338 -8 6
-12 14 -8 17 10 10 213 8 213 -2z m474 0 c4 -5 9 -38 13 -72 l6 -63 -45 48
c-44 45 -48 47 -94 44 l-49 -3 -3 -111 c-2 -92 0 -113 13 -124 26 -21 67 -1
88 43 10 20 23 35 28 31 5 -3 9 -52 9 -110 0 -105 -10 -131 -31 -77 -15 40
-39 63 -64 63 -41 0 -46 -18 -43 -181 3 -154 3 -154 27 -157 46 -7 91 9 126
43 19 19 38 35 44 35 5 0 2 -27 -6 -60 l-15 -60 -187 0 c-168 1 -184 2 -166
16 19 14 20 27 20 340 0 297 -2 327 -17 338 -10 7 -15 16 -11 19 10 11 351 8
357 -2z m377 -216 c62 -118 115 -213 117 -211 2 3 3 94 3 203 -1 172 -4 200
-18 211 -9 6 -15 12 -12 12 50 4 149 3 149 -1 0 -4 -7 -12 -15 -19 -13 -11
-15 -62 -15 -352 l0 -339 -57 3 -56 3 -111 212 c-61 117 -114 213 -118 213 -5
0 -8 -88 -8 -195 0 -182 1 -196 20 -215 l20 -20 -82 0 -82 0 22 20 c22 21 22
25 22 335 0 297 -1 316 -19 334 -11 11 -18 21 -16 23 2 2 35 2 73 0 l70 -4
113 -213z m508 215 c3 0 -3 -6 -13 -13 -18 -13 -16 -25 33 -257 28 -134 54
-246 56 -248 7 -8 12 11 65 252 46 214 49 231 33 248 -9 10 -13 18 -10 19 4 0
34 0 67 0 33 0 62 0 65 0 3 -1 -3 -9 -13 -19 -10 -10 -29 -68 -45 -142 -16
-69 -49 -209 -73 -312 -24 -103 -44 -199 -44 -213 0 -26 0 -26 -77 -23 l-78 3
-23 105 c-105 465 -133 576 -147 586 -8 6 -13 13 -11 15 3 3 179 2 215 -1z
m722 -35 c4 -16 7 -45 8 -63 l1 -32 -43 45 c-41 42 -47 45 -95 45 l-52 0 0
-120 c0 -118 0 -120 24 -126 34 -8 64 11 81 52 24 57 35 31 35 -82 0 -110 -10
-130 -35 -71 -18 44 -38 59 -72 55 l-28 -3 -3 -167 -2 -168 47 0 c51 0 87 18
121 60 29 36 37 19 21 -42 l-14 -53 -185 -2 c-157 -2 -182 -1 -167 11 16 12
17 41 17 345 0 285 -2 332 -15 337 -38 15 7 19 171 14 l179 -5 6 -30z m360
-166 c57 -110 109 -207 116 -217 10 -14 12 24 13 189 0 183 -2 208 -16 213
-30 11 -7 18 61 18 73 0 83 -3 60 -22 -13 -11 -15 -60 -15 -352 l0 -339 -57 3
-58 3 -78 150 c-43 83 -95 179 -115 215 l-37 65 -3 -199 c-2 -175 0 -201 14
-217 17 -18 14 -19 -61 -19 l-78 0 19 21 c18 20 19 40 19 341 0 291 -2 321
-17 332 -26 19 -17 21 60 18 l69 -4 104 -199z m579 201 c3 0 -3 -5 -12 -11
-17 -9 -18 -36 -18 -341 0 -303 1 -332 18 -344 14 -11 0 -13 -97 -14 -110 0
-113 1 -98 18 15 17 17 55 17 339 0 273 -2 322 -15 333 -8 7 -15 15 -15 19 0
4 180 5 220 1z m450 -19 c93 -50 132 -136 131 -291 -1 -194 -58 -328 -164
-379 -37 -18 -62 -21 -177 -21 -128 0 -133 1 -117 18 15 17 17 55 17 339 0
272 -2 322 -15 333 -8 7 -13 15 -11 19 8 12 310 -4 336 -18z m566 4 c52 -31
86 -85 109 -175 22 -85 16 -290 -10 -367 -22 -63 -76 -130 -122 -149 -42 -18
-124 -18 -166 0 -47 19 -101 87 -123 154 -27 80 -27 323 -1 398 39 112 104
164 206 164 51 0 73 -5 107 -25z"/>
<path d="M8045 19264 c-472 -69 -869 -352 -1078 -770 -108 -216 -155 -444
-144 -694 16 -350 155 -667 401 -915 167 -169 340 -277 557 -349 276 -93 551
-98 838 -15 312 90 600 303 779 578 267 408 303 936 93 1373 -182 378 -516
651 -931 760 -104 27 -132 30 -300 33 -102 2 -198 1 -215 -1z m396 -100 c286
-54 516 -173 706 -366 159 -161 248 -301 317 -496 51 -148 68 -254 68 -432 1
-233 -33 -382 -133 -587 -167 -342 -476 -590 -864 -693 -60 -16 -251 -40 -315
-40 -89 0 -267 27 -365 55 -118 34 -288 118 -398 196 -105 74 -254 227 -322
328 -94 142 -158 294 -202 481 -27 114 -24 423 5 540 74 302 229 553 450 732
182 146 366 233 587 278 119 24 351 26 466 4z"/>
<path d="M8125 19018 c-3 -8 -4 -99 -3 -203 l3 -190 113 -3 112 -3 0 36 0 35
-75 0 -75 0 -2 168 -3 167 -33 3 c-20 2 -34 -2 -37 -10z"/>
<path d="M7815 18938 c-16 -6 -44 -24 -61 -40 -111 -104 -30 -287 122 -275 87
6 154 77 154 162 0 64 -52 131 -119 154 -40 13 -56 13 -96 -1z m104 -74 c13
-9 29 -32 37 -50 20 -47 -1 -97 -49 -120 -64 -31 -126 6 -134 79 -5 41 -2 49
25 77 35 35 83 40 121 14z"/>
<path d="M8457 18943 c-4 -3 -7 -78 -7 -165 l0 -158 88 0 c69 0 94 4 119 20
45 27 65 72 66 145 1 113 -58 165 -189 165 -39 0 -74 -3 -77 -7z m176 -71 c41
-45 44 -123 7 -172 -15 -20 -27 -24 -72 -25 l-53 0 -3 94 c-1 52 -1 100 2 108
8 20 99 17 119 -5z"/>
<path d="M8639 18443 c-6 -16 -28 -75 -49 -133 -21 -58 -47 -130 -59 -160 -27
-72 -27 -88 4 -96 26 -7 55 9 55 31 0 6 9 20 20 30 16 14 50 21 153 30 72 6
143 18 157 26 14 7 46 26 72 42 66 40 82 29 21 -16 -61 -44 -291 -280 -355
-363 -95 -124 -158 -284 -158 -404 0 -118 55 -196 180 -257 45 -22 69 -27 135
-27 108 -1 173 29 264 122 61 61 129 158 119 168 -3 2 -20 -10 -38 -26 -53
-47 -148 -53 -192 -13 -57 51 -69 170 -29 290 51 159 240 478 387 659 19 23
34 44 34 47 0 4 -147 8 -327 9 -319 3 -328 4 -331 23 -4 20 -28 45 -44 45 -5
0 -13 -12 -19 -27z"/>
<path d="M7130 18392 c0 -45 2 -49 34 -64 24 -12 41 -32 61 -72 l27 -55 -1
-387 c-1 -221 -6 -407 -12 -434 -10 -48 -30 -74 -72 -94 -17 -9 -23 -22 -25
-54 l-3 -42 155 0 156 0 0 49 c0 48 -1 50 -36 61 -59 20 -64 44 -64 316 0 161
3 235 11 232 5 -2 35 -51 65 -108 31 -58 73 -136 93 -175 21 -38 69 -128 106
-200 37 -71 75 -138 83 -147 19 -22 68 -31 107 -20 l30 8 5 515 c5 491 6 516
25 553 12 23 37 47 60 61 34 19 40 27 40 56 l0 34 -171 3 -172 2 -5 -25 c-5
-31 15 -55 48 -55 14 0 34 -13 49 -31 l26 -31 0 -233 c0 -235 -5 -266 -35
-234 -7 8 -74 150 -150 317 l-138 302 -148 0 -149 0 0 -48z"/>
<path d="M8145 18413 c-81 -43 -114 -103 -115 -211 0 -137 71 -223 183 -223
66 0 105 18 145 67 68 82 68 221 1 315 -44 62 -148 87 -214 52z m136 -91 c27
-24 32 -36 36 -93 7 -85 -9 -134 -51 -160 -42 -26 -69 -24 -105 7 -46 39 -62
110 -40 188 24 85 99 113 160 58z"/>
<path d="M8040 17870 l0 -40 175 0 175 0 0 40 0 40 -175 0 -175 0 0 -40z"/>
<path d="M7507 17053 c-4 -3 -7 -53 -7 -110 l0 -103 67 -31 c36 -17 84 -39
105 -50 38 -19 38 -19 58 1 26 26 26 84 0 135 -14 27 -17 42 -9 51 6 7 9 30 7
51 -2 28 -9 41 -28 50 -26 13 -182 18 -193 6z m151 -60 c4 -26 -27 -46 -66
-41 -22 2 -28 9 -30 36 l-3 33 48 -3 c41 -3 48 -6 51 -25z m-10 -93 c24 -15
32 -27 30 -43 -4 -28 -34 -33 -82 -13 -30 13 -36 20 -36 45 0 27 4 31 28 31
15 0 42 -9 60 -20z"/>
<path d="M7810 16889 l0 -170 33 3 32 3 0 70 c0 69 1 70 27 73 36 4 52 -23 82
-131 30 -108 31 -109 61 -95 14 6 25 15 25 20 0 5 -14 51 -32 103 l-31 95 28
30 c35 36 38 83 10 122 -29 39 -57 48 -150 48 l-85 0 0 -171z m162 104 c41
-37 12 -76 -54 -71 -39 3 -43 6 -46 31 -2 16 -1 35 2 43 8 20 75 18 98 -3z"/>
<path d="M8487 17053 c-4 -3 -7 -87 -7 -185 l0 -179 28 3 c27 3 27 4 30 88 2
47 7 89 12 94 8 8 35 -30 75 -106 21 -42 42 -47 74 -20 21 16 22 24 19 157
l-3 140 -30 0 -30 0 -3 -82 c-2 -63 -6 -83 -17 -83 -7 0 -17 9 -20 21 -9 28
-77 142 -90 151 -13 10 -30 10 -38 1z"/>
<path d="M8214 17042 c-16 -11 -127 -351 -120 -368 4 -10 16 -14 32 -12 22 3
30 13 49 66 13 35 26 66 29 69 3 4 15 -3 26 -15 26 -27 46 -28 60 -2 17 32 27
24 50 -44 23 -69 33 -79 67 -63 27 12 28 7 -36 194 -61 181 -63 183 -109 183
-20 0 -42 -4 -48 -8z m75 -123 c11 -38 11 -44 -6 -61 -20 -20 -48 -16 -56 7
-3 7 -1 31 5 54 14 56 40 56 57 0z"/>
<path d="M8793 17042 c-7 -4 -14 -54 -19 -129 -6 -108 -5 -123 10 -129 21 -8
181 70 201 99 19 27 19 77 1 121 -12 29 -19 34 -61 39 -63 9 -117 9 -132 -1z
m136 -56 c7 -8 11 -29 9 -48 -5 -54 -105 -106 -122 -62 -5 14 0 81 10 112 5
17 88 16 103 -2z"/>
<path d="M2772 13868 c-8 -8 -12 -53 -12 -135 l0 -123 25 0 c39 0 58 40 63
135 4 79 3 85 -21 109 -29 29 -38 31 -55 14z"/>
<path d="M2767 13553 c-4 -3 -7 -73 -7 -155 0 -128 2 -149 16 -155 39 -15 81
42 90 119 9 79 -3 146 -31 174 -23 23 -55 31 -68 17z"/>
<path d="M6676 13854 c-10 -25 -7 -588 3 -603 16 -25 60 3 81 52 27 61 43 213
37 347 -7 159 -33 220 -95 220 -11 0 -23 -7 -26 -16z"/>
<path d="M7253 13854 c-16 -25 -18 -54 -18 -294 0 -216 3 -271 15 -295 21 -41
53 -44 77 -9 16 25 18 57 21 289 2 233 1 264 -15 295 -23 46 -55 51 -80 14z"/>
</g>
</svg>
